<svg version="1.1" id="Layer_1" xmlns="http://www.w3.org/2000/svg" xmlns:xlink="http://www.w3.org/1999/xlink" x="0px" y="0px"
	 width="100%" viewBox="0 0 1773 863" enable-background="new 0 0 1773 863" xml:space="preserve">
<path fill="#FFFFFF" opacity="1.000000" stroke="none" 
	d="
M465.000000,864.000000 
	C310.417389,864.000000 155.834793,864.000000 1.000000,864.000000 
	C1.000000,757.975220 1.000000,651.950256 1.468657,545.462646 
	C24.417591,545.000000 46.897869,545.000000 69.484039,545.000000 
	C79.334175,507.965607 89.134308,471.119232 99.324097,432.807861 
	C101.425156,435.375366 102.627228,436.965179 103.952637,438.444489 
	C112.939751,448.475311 121.854820,458.573273 130.983627,468.473907 
	C141.281601,479.642639 151.838730,490.572083 162.166443,501.713745 
	C167.742188,507.728943 173.010712,514.027832 178.535995,520.091125 
	C183.087128,525.085388 187.484161,530.294006 192.536606,534.740417 
	C200.247147,541.526062 210.057526,544.073914 219.888794,544.836426 
	C242.628677,546.599976 264.775574,543.914490 284.852325,531.996948 
	C295.140686,525.889709 303.889740,518.118347 307.454926,506.046509 
	C308.781403,501.554962 310.124481,497.029266 310.871552,492.423676 
	C311.198242,490.409698 310.731201,487.552032 309.456573,486.109619 
	C301.368591,476.957001 292.940491,468.105499 284.650818,459.130402 
	C277.042206,450.892670 269.474701,442.617035 261.874878,434.371124 
	C249.918716,421.398438 237.991394,408.398895 225.975342,395.481873 
	C215.621689,384.351898 205.104233,373.374084 194.772461,362.224060 
	C189.754974,356.809174 185.062134,351.094757 180.102493,345.624603 
	C175.107849,340.115784 170.524368,334.031799 164.751373,329.479919 
	C156.686890,323.121246 146.664536,320.348541 136.544022,320.195679 
	C124.881149,320.019531 113.074974,320.511383 101.550377,322.205383 
	C86.760971,324.379211 73.636620,331.161133 61.966000,340.535797 
	C52.245106,348.344330 50.077461,360.012787 47.070446,371.053314 
	C39.008213,400.654480 31.300472,430.352234 23.466513,460.015472 
	C18.598024,478.450012 13.842265,496.914886 8.865156,515.319946 
	C6.445435,524.267944 3.634066,533.109985 0.999999,542.000000 
	C1.000000,361.724396 1.000000,181.448822 1.000000,1.000000 
	C263.024872,1.000000 525.049805,1.000000 787.328308,1.380067 
	C774.987305,2.837417 762.316040,3.368881 749.816406,5.122825 
	C732.078247,7.611827 714.376099,10.554668 696.820374,14.103699 
	C665.811462,20.372347 635.571350,29.689772 606.292175,41.458469 
	C581.532654,51.410507 557.269714,62.831997 533.565063,75.105904 
	C511.537201,86.511574 490.297363,99.514549 469.178223,112.570679 
	C457.075897,120.052498 445.905090,129.041122 434.038422,137.552673 
	C432.818787,138.353439 431.875641,138.952911 430.932495,139.552383 
	C431.175385,139.913300 431.418304,140.274216 431.661194,140.635132 
	C432.799225,139.785126 433.937256,138.935104 435.433655,138.047302 
	C453.845825,127.343063 471.568970,116.059128 490.038147,106.168304 
	C512.523865,94.126495 535.487732,82.916969 559.791992,74.820526 
	C578.693298,68.523956 597.403259,61.529545 616.572144,56.186798 
	C649.230957,47.084122 682.700378,41.698849 716.539551,40.287769 
	C737.135803,39.428921 757.978333,40.166100 778.469238,42.398415 
	C796.122070,44.321541 813.509399,49.053551 830.877563,53.125935 
	C853.623108,58.459171 874.926453,67.735306 894.908569,79.641075 
	C914.289246,91.188484 931.931885,105.041428 947.409912,121.732353 
	C961.064453,136.456909 973.018616,152.323502 981.827759,170.231201 
	C988.315552,183.419815 993.457642,197.337280 998.348022,211.229691 
	C1006.446228,234.234940 1008.649658,258.345276 1009.889099,282.503632 
	C1010.268372,289.896179 1009.575439,297.377625 1008.938538,304.780945 
	C1007.800171,318.014160 1007.195679,331.379059 1004.785217,344.395813 
	C1001.659668,361.275055 997.729431,378.092560 992.760986,394.517883 
	C988.127014,409.837738 982.516113,424.993469 975.831909,439.530182 
	C966.385559,460.073975 956.513489,480.546387 945.040466,499.997650 
	C934.321533,518.170654 921.921509,535.465637 909.075867,552.239136 
	C895.848267,569.511353 881.661133,586.117615 867.003052,602.203491 
	C855.630005,614.684448 843.078430,626.123108 830.692017,637.639343 
	C820.462219,647.150391 810.161804,656.691589 799.080566,665.156128 
	C781.682068,678.446045 763.972961,691.407288 745.695557,703.444946 
	C729.580811,714.058228 712.954346,724.099670 695.747375,732.798523 
	C673.344055,744.124268 650.472839,754.693054 627.183472,764.044495 
	C608.473877,771.556885 588.988586,777.279968 569.581665,782.874756 
	C547.509827,789.237793 525.017578,793.931030 502.070038,796.036072 
	C487.543274,797.368652 473.032410,799.442078 458.481598,799.782410 
	C444.331177,800.113403 430.075928,799.272217 415.981873,797.824402 
	C400.247803,796.208069 384.499878,794.029053 369.012482,790.853699 
	C336.683319,784.225342 306.744324,771.251587 279.108368,753.382751 
	C260.251984,741.190552 243.115814,726.628113 229.434082,708.677795 
	C220.007660,696.310425 211.090393,683.432373 203.218216,670.034790 
	C193.811157,654.025085 187.693542,636.456421 183.288925,618.403320 
	C179.460342,602.711243 176.131958,586.910339 175.952957,570.631653 
	C175.934357,568.940491 175.154266,567.257690 174.727493,565.571045 
	C174.092865,565.659119 173.458237,565.747253 172.823608,565.835327 
	C174.207611,585.080933 175.468155,604.336487 177.013504,623.569092 
	C178.319870,639.827637 182.256058,655.571899 186.937531,671.153381 
	C192.915451,691.049927 201.013916,710.086426 212.089081,727.600525 
	C220.490112,740.885864 229.375992,754.099976 239.735352,765.857483 
	C256.164886,784.504395 274.980286,800.654785 296.233887,813.943054 
	C311.880646,823.725708 327.988861,832.616455 345.281342,838.751160 
	C363.435944,845.191772 382.058258,850.481262 400.746613,855.203613 
	C420.276428,860.138550 440.293915,862.487427 460.479187,863.038269 
	C461.993744,863.079651 463.493408,863.666626 465.000000,864.000000 
M795.328735,320.998932 
	C783.585815,322.805450 771.695374,323.956299 760.131775,326.559448 
	C738.269531,331.480865 717.555359,339.657013 697.897339,350.528015 
	C676.145386,362.556885 655.973328,376.474274 640.855469,396.653839 
	C625.685669,416.902679 617.936890,439.107300 621.874390,464.836517 
	C624.054749,479.083923 630.580017,490.892334 639.916321,501.312408 
	C651.843689,514.624329 666.512085,524.114014 682.962280,531.032043 
	C702.960327,539.442261 723.883789,543.917358 745.414490,544.823730 
	C759.631714,545.422180 773.979126,545.020691 788.159241,543.800415 
	C801.412964,542.659912 814.753540,540.775696 827.644653,537.566589 
	C849.481262,532.130493 870.365906,523.900330 889.963501,512.577515 
	C909.208069,501.458710 927.212646,488.877686 941.206177,471.290314 
	C955.360352,453.501068 964.372559,433.844421 964.062683,410.520813 
	C963.813843,391.794495 956.656860,376.091370 944.105530,362.676666 
	C931.533447,349.239838 916.084473,340.002869 899.191711,333.029175 
	C879.283691,324.810638 858.443115,320.891083 837.028748,320.076141 
	C825.714233,319.645569 814.369385,319.946869 803.039368,320.044922 
	C800.777527,320.064453 798.520630,320.660889 795.328735,320.998932 
M477.500000,320.000000 
	C468.168793,320.000000 458.828552,320.263885 449.508331,319.944061 
	C431.117676,319.312988 413.343628,321.921295 396.293396,329.002319 
	C387.596069,332.614410 379.751526,337.666107 376.341339,346.684113 
	C373.100616,355.253998 371.343658,364.389618 369.004974,373.295044 
	C363.545624,394.083466 358.240051,414.912872 352.666687,435.670532 
	C345.587585,462.036255 338.221466,488.325012 331.157440,514.694702 
	C328.793671,523.518555 331.253845,529.557922 339.117371,534.567139 
	C350.352539,541.724121 363.148712,544.740662 376.085297,544.818787 
	C441.402679,545.213135 506.723694,545.000061 572.043457,544.999878 
	C573.043274,544.999878 574.201843,545.316772 575.004700,544.918274 
	C576.138306,544.355652 577.601990,543.430542 577.901306,542.371277 
	C581.366272,530.109436 584.638184,517.793152 588.094055,505.000000 
	C585.969666,505.000000 584.179138,505.000000 582.388550,505.000000 
	C540.563904,505.000000 498.739227,505.023560 456.914703,504.951477 
	C453.851715,504.946198 450.676300,504.635620 447.755951,503.777222 
	C444.001160,502.673523 441.737518,500.178162 442.989990,495.760742 
	C444.575287,490.169586 446.054932,484.548340 447.561798,478.935150 
	C457.025482,443.682495 466.831360,408.515472 475.703674,373.114563 
	C477.964203,364.095032 481.161926,360.556488 492.540405,360.102844 
	C504.186157,359.638580 515.864807,360.000061 527.529053,360.000061 
	C559.189148,360.000061 590.849243,359.989807 622.509338,360.020874 
	C624.864868,360.023193 627.188660,360.254425 627.931763,357.246552 
	C630.954041,345.012695 633.974182,332.778290 637.129456,320.000000 
	C584.045349,320.000000 531.272705,320.000000 477.500000,320.000000 
M533.500000,411.999664 
	C516.334839,411.999664 499.169006,412.077759 482.005096,411.931183 
	C478.720917,411.903198 477.590698,412.980865 476.880890,416.194611 
	C475.139252,424.080200 472.779877,431.827972 470.736023,439.648682 
	C469.620239,443.918060 468.640778,448.223083 467.515778,452.858276 
	C512.863892,452.858276 557.158325,452.858276 601.834473,452.858276 
	C605.472229,439.326691 609.109497,425.797272 612.754272,412.239563 
	C612.146851,412.132996 611.819885,412.025543 611.492920,412.025360 
	C585.828613,412.011383 560.164307,412.005859 533.500000,411.999664 
M388.124573,278.488220 
	C380.117950,252.467178 352.221222,242.841599 330.002136,254.184219 
	C310.759155,264.007568 304.000183,283.281067 309.505554,302.906647 
	C315.499847,324.275391 337.573334,335.784790 357.783539,330.995728 
	C370.642090,327.948730 380.301758,321.022339 386.181366,308.721497 
	C390.831482,298.992889 390.828979,289.247040 388.124573,278.488220 
M278.170776,258.000549 
	C279.743469,257.669800 281.306580,257.281860 282.890289,257.016998 
	C301.856140,253.845078 317.452393,232.004089 314.225098,211.261154 
	C310.622925,188.108765 290.224213,172.298706 266.464111,176.192657 
	C239.820847,180.559097 224.324448,209.577667 236.302032,234.447784 
	C244.410202,251.283554 258.485474,259.033081 278.170776,258.000549 
M240.042740,374.052277 
	C240.356308,374.800293 240.720642,375.531403 240.976074,376.298767 
	C249.043991,400.537079 279.539307,407.771698 297.697449,389.781006 
	C311.181427,376.421356 311.171082,354.689880 297.740906,340.932526 
	C286.853760,329.780151 266.299988,327.795013 254.331009,336.841888 
	C241.991898,346.168488 236.977280,358.006958 240.042740,374.052277 
M430.394531,140.527283 
	C429.377594,141.080734 428.360687,141.634171 427.343750,142.187622 
	C427.528137,142.503586 427.712524,142.819550 427.896912,143.135513 
	C428.898193,142.466599 429.899445,141.797699 430.394531,140.527283 
z"/>
<path fill="#FFFFFF" opacity="1.000000" stroke="none" 
	d="
M1774.000000,416.000000 
	C1774.000000,565.297119 1774.000000,714.594299 1774.000000,864.000000 
	C1351.638672,864.000000 929.277283,864.000000 506.669983,863.621338 
	C524.377075,861.497253 542.386230,860.184692 560.264893,857.866028 
	C573.912109,856.096191 587.487671,853.473267 600.929932,850.486267 
	C627.892700,844.495117 654.378113,836.672791 680.166870,826.805786 
	C699.040344,819.584778 717.726624,811.768433 736.061401,803.278198 
	C751.728943,796.023010 766.916870,787.684326 782.055298,779.349609 
	C793.836060,772.863403 805.408997,765.949707 816.731934,758.691895 
	C842.516174,742.164490 867.631592,724.678406 890.871277,704.645447 
	C903.348816,693.889587 916.229980,683.549744 928.115356,672.172302 
	C942.994812,657.928772 957.113953,642.884827 971.405212,628.036194 
	C976.969360,622.255066 982.419434,616.309631 987.377197,610.010620 
	C998.325623,596.100403 1009.458679,582.285950 1019.538757,567.754211 
	C1032.241333,549.442017 1044.503418,530.773193 1055.937134,511.649323 
	C1064.167725,497.882812 1071.134155,483.307678 1077.923340,468.747681 
	C1084.152344,455.389160 1089.886963,441.750488 1094.958008,427.912292 
	C1105.148682,400.102997 1113.563232,371.746918 1116.988281,342.198120 
	C1119.006836,324.782715 1120.673584,307.310974 1121.854126,289.821106 
	C1122.384033,281.969818 1121.689087,273.977539 1120.924683,266.109955 
	C1119.533936,251.792542 1118.136841,237.448227 1115.908691,223.245956 
	C1112.309204,200.303955 1104.644775,178.505676 1094.772705,157.586075 
	C1085.206055,137.313675 1073.405396,118.296867 1058.127441,101.767525 
	C1048.063354,90.879097 1037.985229,79.795242 1026.592041,70.401360 
	C1014.889099,60.752018 1001.976379,52.373131 988.857239,44.695621 
	C976.706360,37.584763 963.992432,31.003042 950.788513,26.229528 
	C932.513123,19.622595 913.721191,14.209884 894.827454,9.613683 
	C875.757080,4.974496 856.238098,2.399385 836.521912,1.960736 
	C835.008240,1.927060 833.507019,1.333387 832.000000,1.000003 
	C1145.903198,1.000000 1459.806396,1.000000 1774.000000,1.000000 
	C1774.000000,137.027893 1774.000000,273.056000 1773.611572,409.359314 
	C1773.383789,399.170319 1770.738525,389.292419 1765.947144,380.155426 
	C1756.832153,362.773254 1742.197021,350.833527 1725.541870,341.241028 
	C1702.717529,328.095612 1677.642700,321.748779 1651.698242,320.296509 
	C1630.655762,319.118591 1609.457275,319.146301 1588.425781,322.863495 
	C1567.602051,326.543884 1547.401733,331.906158 1528.015625,340.444458 
	C1502.122681,351.848541 1478.145386,365.990753 1458.598999,386.868866 
	C1444.035645,402.424561 1433.979858,420.051910 1430.838745,441.540131 
	C1428.603394,456.831085 1430.687012,471.330566 1437.540527,484.794586 
	C1446.311646,502.026123 1460.620850,514.265137 1477.255859,523.598389 
	C1504.298584,538.771118 1533.650879,545.252136 1564.488281,544.913025 
	C1579.671875,544.746094 1594.938599,544.472351 1609.993652,542.737122 
	C1621.821655,541.373779 1633.432617,537.895020 1645.051392,535.000000 
	C1668.361450,529.192017 1689.781250,518.859497 1710.092041,506.327240 
	C1726.384521,496.274384 1740.859619,483.832458 1752.672485,468.682251 
	C1760.578125,458.542999 1766.639526,447.230133 1769.956299,434.690765 
	C1771.584717,428.534729 1772.669312,422.234833 1774.000000,416.000000 
M1308.000244,378.325317 
	C1307.437134,374.135742 1307.373657,369.802277 1306.216187,365.783905 
	C1302.898071,354.264343 1294.040161,347.489960 1284.150391,342.090912 
	C1268.215088,333.391602 1250.917236,328.894653 1233.081665,325.854523 
	C1213.319946,322.486053 1193.519409,320.030334 1173.455200,320.003174 
	C1160.789062,319.986023 1148.123047,319.993195 1135.456909,320.009460 
	C1134.017578,320.011322 1132.578491,320.143158 1131.765137,320.183624 
	C1129.844849,333.628693 1127.989258,346.620911 1126.078491,360.000000 
	C1134.248291,360.000000 1142.067261,359.741241 1149.861938,360.063812 
	C1160.196411,360.491455 1170.169800,362.765228 1179.181519,368.064941 
	C1190.190674,374.539307 1191.002441,388.709198 1180.914185,396.544617 
	C1167.590332,406.893097 1152.135864,411.177429 1135.588745,411.939880 
	C1127.949463,412.291870 1120.280396,411.999878 1112.721191,411.999878 
	C1107.719849,425.634003 1102.797974,439.051025 1097.681030,453.000092 
	C1107.532227,453.000092 1116.836060,452.828461 1126.130859,453.048126 
	C1135.503662,453.269623 1144.338501,455.641388 1152.790161,459.901489 
	C1167.959229,467.547729 1164.755981,483.652740 1153.815063,491.087189 
	C1139.715820,500.667725 1123.949707,504.233185 1107.357056,504.923645 
	C1097.374756,505.338989 1087.355835,505.184265 1077.364258,504.902100 
	C1073.770630,504.800598 1071.948242,505.812592 1070.261719,509.096985 
	C1066.496094,516.429810 1062.135254,523.461182 1057.918457,530.556763 
	C1055.110229,535.281982 1052.132080,539.906250 1048.355469,545.982910 
	C1081.723755,544.958374 1113.590088,544.448730 1145.396606,542.791992 
	C1159.812500,542.041016 1174.178711,539.410339 1188.445068,536.928955 
	C1211.374268,532.940857 1233.531982,526.446289 1253.557129,514.073853 
	C1266.841431,505.866241 1277.381226,495.248260 1281.592285,479.740570 
	C1285.336914,465.950500 1282.949341,453.370575 1271.906128,443.555664 
	C1267.153809,439.331909 1261.611694,435.996857 1256.645020,432.414337 
	C1263.476196,428.949005 1270.832153,425.865845 1277.512329,421.699127 
	C1293.400146,411.789185 1305.687988,399.021667 1308.000244,378.325317 
M1316.458130,408.029266 
	C1316.290894,408.993774 1316.197510,409.977997 1315.945679,410.919891 
	C1309.181885,436.211853 1302.412598,461.502441 1295.620972,486.786957 
	C1290.442383,506.065948 1285.231934,525.336304 1279.985229,544.797546 
	C1315.830444,544.797546 1351.282715,544.797546 1386.611450,544.797546 
	C1406.651489,469.793060 1426.632812,395.008270 1446.673706,320.000824 
	C1412.045898,320.000824 1377.426636,319.964447 1342.808594,320.145477 
	C1341.538696,320.152130 1339.503296,322.078949 1339.130859,323.462524 
	C1331.615112,351.388092 1324.291016,379.365265 1316.458130,408.029266 
M1196.214722,701.971619 
	C1236.987183,701.971619 1277.759521,701.971619 1319.446899,701.971619 
	C1318.224976,707.513733 1317.129761,712.481323 1315.981689,717.687988 
	C1317.098145,717.803833 1318.047852,717.984070 1318.998291,717.987671 
	C1325.327148,718.011902 1331.664062,718.158813 1337.976929,717.840271 
	C1339.038574,717.786743 1340.686768,715.778320 1340.893799,714.485718 
	C1342.855957,702.234985 1342.783203,702.226318 1352.738159,701.936035 
	C1353.040405,701.927246 1353.336670,701.710693 1353.468018,701.658081 
	C1354.948242,695.484680 1356.401123,689.424622 1357.959473,682.925293 
	C1354.821411,682.925293 1352.041992,682.925293 1348.595215,682.925293 
	C1354.982178,656.049683 1361.247803,629.684753 1367.422607,603.701477 
	C1370.107178,602.972534 1374.301147,602.920105 1374.832153,601.499084 
	C1376.986938,595.732117 1378.016724,589.544800 1379.527100,583.238159 
	C1327.396973,583.238159 1276.328125,583.238159 1225.555054,583.238159 
	C1223.978149,589.812622 1222.471436,596.094849 1220.884399,602.711487 
	C1223.328613,602.904663 1225.564453,603.081421 1227.867920,603.263428 
	C1227.914551,604.153015 1228.104614,604.839294 1227.960083,605.445801 
	C1222.229126,629.515015 1216.416626,653.564941 1210.762939,677.652222 
	C1209.857422,681.510437 1208.460327,683.875183 1203.956787,683.047363 
	C1200.971802,682.498779 1199.194092,683.268433 1198.783691,687.078064 
	C1198.250488,692.028381 1196.572266,696.855347 1196.214722,701.971619 
M1490.242065,584.000000 
	C1482.602051,584.000000 1474.962158,584.000000 1467.527466,584.000000 
	C1465.873657,590.916077 1464.310547,597.452881 1462.803467,603.755371 
	C1450.656128,603.755371 1439.109741,603.755371 1427.072510,603.755371 
	C1430.287354,598.102417 1433.279785,592.840210 1436.605713,586.991821 
	C1427.991211,586.991821 1420.337402,586.934509 1412.686401,587.052307 
	C1411.511353,587.070374 1409.700928,587.565552 1409.278320,588.396484 
	C1403.489746,599.778809 1397.893555,611.258972 1391.958130,623.307495 
	C1414.407349,623.307495 1436.134521,623.307495 1458.261108,623.307495 
	C1456.446167,630.485352 1454.241943,637.133118 1453.226074,643.957764 
	C1452.564209,648.405518 1450.744507,649.112915 1446.828247,649.076233 
	C1428.356812,648.903137 1409.883057,648.999084 1391.446167,648.999084 
	C1389.812866,655.706604 1388.261353,662.078430 1386.540405,669.145447 
	C1407.141968,669.145447 1427.006104,669.145447 1447.297729,669.145447 
	C1445.188721,677.615051 1442.859009,685.383606 1441.440063,693.315063 
	C1440.691895,697.496582 1438.894775,698.108643 1435.213623,698.075806 
	C1416.719238,697.910583 1398.222412,698.030762 1379.726685,697.967529 
	C1376.910522,697.957886 1375.288818,698.270813 1374.806396,701.817688 
	C1374.124512,706.833008 1372.360596,711.701172 1370.962158,717.000000 
	C1373.242920,717.000000 1375.063599,717.000000 1376.884277,717.000000 
	C1422.374268,717.000000 1467.864380,717.000000 1513.354370,717.000000 
	C1516.853638,717.000000 1520.354736,716.928772 1523.851440,717.023621 
	C1526.333496,717.090942 1527.665405,716.573181 1528.129395,713.601868 
	C1528.937012,708.431274 1530.498169,703.378296 1531.828613,697.926270 
	C1509.990479,697.926270 1488.701904,697.926270 1467.083984,697.926270 
	C1469.107910,689.930542 1471.609131,682.323914 1472.788818,674.517578 
	C1473.472046,669.995117 1474.894897,668.865112 1479.198608,668.913147 
	C1497.672729,669.119080 1516.150391,669.001038 1534.788696,669.001038 
	C1536.315552,662.326355 1537.780396,655.922180 1539.402466,648.831177 
	C1518.843018,648.831177 1498.984375,648.831177 1478.683105,648.831177 
	C1479.846924,644.616821 1480.881958,641.054138 1481.809937,637.463745 
	C1483.023682,632.767761 1482.704224,625.938599 1485.693115,623.888123 
	C1489.245361,621.451172 1495.609619,623.028259 1500.755859,623.015625 
	C1517.726196,622.974060 1534.696777,623.000000 1551.549561,623.000000 
	C1553.133545,616.562256 1554.622314,610.511230 1556.228516,603.982788 
	C1533.885132,603.982788 1512.104248,603.982788 1489.552856,603.982788 
	C1491.025269,598.188965 1492.333252,592.908081 1493.719849,587.647888 
	C1494.327148,585.344177 1494.284424,583.645630 1490.242065,584.000000 
M1078.932739,606.267212 
	C1077.957764,609.722900 1076.982910,613.178589 1075.917114,616.956360 
	C1091.850952,616.956360 1107.161133,616.956360 1122.800781,616.956360 
	C1118.097534,629.289246 1113.547852,641.363831 1108.800171,653.360046 
	C1108.467285,654.200745 1106.690796,654.861328 1105.550537,654.919617 
	C1101.761475,655.112854 1097.956543,654.992676 1093.583130,654.992676 
	C1095.766113,646.051453 1097.808838,637.684082 1099.928833,629.000732 
	C1091.589966,629.000732 1083.764160,628.846680 1075.955811,629.147095 
	C1074.599243,629.199341 1073.042725,630.978149 1072.093018,632.322937 
	C1071.423096,633.271484 1071.720703,634.857910 1071.420044,636.119873 
	C1068.428711,648.673340 1065.402954,661.218628 1062.276733,674.223877 
	C1075.012939,674.223877 1087.417236,674.223877 1100.383667,674.223877 
	C1097.713135,681.331970 1095.243164,687.906250 1092.578735,694.998413 
	C1101.046509,694.998413 1108.857178,695.107300 1116.658081,694.878540 
	C1117.801270,694.845032 1119.424072,693.433044 1119.927002,692.270447 
	C1122.538940,686.231995 1124.859497,680.067566 1127.177368,674.210449 
	C1128.089600,674.095703 1128.417725,674.018738 1128.745850,674.018311 
	C1137.409180,674.007385 1146.096924,673.594482 1154.729248,674.109558 
	C1164.306641,674.681030 1177.343262,666.720337 1180.276001,655.291077 
	C1182.498413,646.630310 1184.528687,637.920288 1186.700928,629.000549 
	C1178.539185,629.000549 1170.876831,629.116699 1163.221069,628.943359 
	C1160.157349,628.874023 1159.463989,630.422485 1158.942871,632.975647 
	C1157.779175,638.677612 1156.654907,644.434998 1154.784302,649.920776 
	C1154.087524,651.964111 1151.526123,654.442627 1149.513306,654.750549 
	C1144.843750,655.465027 1139.990601,654.978088 1135.219238,654.978088 
	C1135.132568,654.018982 1134.908569,653.455566 1135.069702,653.042175 
	C1139.456787,641.783081 1143.800537,630.505127 1148.426880,619.344360 
	C1148.902588,618.196594 1151.093140,617.127136 1152.507324,617.101807 
	C1162.999878,616.914185 1173.501709,616.829956 1183.991333,617.087952 
	C1187.908569,617.184265 1189.987915,616.473206 1190.599487,612.075928 
	C1191.334595,606.789368 1193.006836,601.632996 1194.422363,595.807190 
	C1190.320312,595.807190 1187.261719,595.807190 1183.724609,595.807190 
	C1186.081055,591.734314 1188.131714,588.189636 1190.555664,584.000061 
	C1181.896484,584.000061 1174.084961,584.372681 1166.329102,583.876587 
	C1160.611816,583.510925 1156.737793,584.670593 1154.603271,590.542114 
	C1153.814331,592.712341 1151.247314,595.618774 1149.321167,595.753052 
	C1141.055054,596.329590 1132.725586,595.999084 1123.986816,595.999084 
	C1123.478638,591.886108 1123.007324,588.070557 1122.542358,584.306885 
	C1112.664307,584.306885 1102.921387,584.306885 1092.780151,584.306885 
	C1093.210571,588.315613 1093.602539,591.965820 1094.039917,596.038635 
	C1089.406494,596.038635 1085.294922,596.038635 1081.258179,596.038635 
	C1080.441040,599.422852 1079.716797,602.422729 1078.932739,606.267212 
M1636.244873,583.000000 
	C1629.417480,583.000000 1622.589478,583.056580 1615.763184,582.972290 
	C1613.010620,582.938232 1611.380737,583.176331 1610.799316,586.751770 
	C1609.740356,593.264648 1607.202515,599.541321 1606.202148,606.057922 
	C1605.475708,610.791443 1603.468872,611.764465 1599.275513,610.656677 
	C1601.534180,604.217773 1603.768555,597.848450 1606.170166,591.002258 
	C1599.262573,591.002258 1592.795288,590.835205 1586.350220,591.138916 
	C1585.012695,591.201904 1583.121094,592.742188 1582.564087,594.058411 
	C1577.604614,605.776306 1572.887817,617.596863 1567.856567,629.985229 
	C1578.762085,629.985229 1589.304199,629.985229 1600.559814,629.985229 
	C1598.404053,638.807251 1596.517212,646.982300 1594.309204,655.069824 
	C1593.981323,656.270508 1592.291138,657.538940 1590.971802,657.956909 
	C1583.145874,660.436157 1575.315796,662.975708 1567.342407,664.892334 
	C1561.508545,666.294617 1556.215088,667.444641 1556.841553,675.241638 
	C1556.962524,676.747986 1555.940552,678.322571 1555.579834,679.896362 
	C1554.926636,682.746338 1554.374390,685.619507 1553.689087,688.920410 
	C1565.840088,685.470154 1577.100952,682.272644 1588.810303,678.947815 
	C1585.772217,691.818237 1582.855713,704.173767 1579.828735,716.996765 
	C1589.017822,716.996765 1597.824341,717.139038 1606.614868,716.826416 
	C1607.785278,716.784790 1609.520874,714.601746 1609.898193,713.129395 
	C1613.062866,700.778381 1616.398926,688.442383 1618.759033,675.927551 
	C1619.786865,670.476685 1622.517334,668.824341 1627.198853,667.867615 
	C1628.949585,667.509827 1631.373169,665.975830 1631.817139,664.481201 
	C1633.554688,658.632996 1634.623535,652.586121 1636.148804,645.670837 
	C1632.651733,646.525574 1629.637939,647.262146 1625.714722,648.221069 
	C1626.679443,643.550598 1627.814087,639.380615 1628.342285,635.135132 
	C1628.892700,630.710999 1631.146118,629.519714 1635.281372,629.884766 
	C1636.897217,630.027466 1639.780029,629.259399 1640.112915,628.253235 
	C1641.911987,622.816528 1643.092163,617.174988 1644.637085,610.999023 
	C1640.556763,610.999023 1637.502075,610.999023 1634.342285,610.999023 
	C1636.568481,601.505188 1638.698608,592.421448 1640.907837,583.000000 
	C1639.475464,583.000000 1638.324585,583.000000 1636.244873,583.000000 
M1004.394287,714.093994 
	C1003.930847,715.244995 1003.467407,716.395996 1002.821228,718.000793 
	C1008.449463,718.000793 1013.585815,717.967102 1018.721497,718.011047 
	C1023.112488,718.048645 1028.083374,719.182251 1028.060303,713.156982 
	C1030.984497,714.773560 1033.893066,717.770813 1036.823730,717.792480 
	C1078.314575,718.098450 1119.808594,718.016785 1161.301636,717.928528 
	C1162.643188,717.925720 1164.883301,717.144348 1165.173950,716.236267 
	C1166.823730,711.079712 1168.007080,705.773926 1169.484009,699.991333 
	C1164.870972,699.991333 1161.063843,699.991333 1157.256836,699.991333 
	C1122.929077,699.991333 1088.601196,700.024475 1054.273926,699.896484 
	C1052.498047,699.889893 1050.080811,698.992065 1049.084229,697.665955 
	C1046.769409,694.585754 1044.828369,691.117676 1043.366211,687.548584 
	C1042.631958,685.756348 1042.600830,683.086670 1043.407349,681.350952 
	C1047.772217,671.958618 1052.498413,662.734314 1057.336426,652.975586 
	C1053.512329,652.975586 1050.542114,652.975586 1047.094238,652.975586 
	C1054.646729,639.642151 1062.011719,626.639709 1069.736694,613.001953 
	C1055.968994,613.001953 1043.310425,612.903015 1030.658813,613.157837 
	C1029.418213,613.182800 1027.553955,615.183105 1027.129272,616.609009 
	C1025.858887,620.874023 1025.160034,625.309326 1024.152222,630.084839 
	C1028.531250,630.084839 1032.629272,630.084839 1037.527344,630.084839 
	C1029.485107,643.978699 1021.801941,657.252258 1013.714294,671.224609 
	C1018.710327,671.224609 1022.588196,671.224609 1026.922974,671.224609 
	C1019.436462,685.609131 1012.176270,699.558716 1004.394287,714.093994 
M1704.937622,627.222778 
	C1703.064819,634.583252 1701.089722,641.919617 1699.341431,649.309570 
	C1696.143799,662.826782 1693.090942,676.378174 1689.955811,689.910339 
	C1688.534790,696.044250 1686.540527,701.599915 1678.534058,701.084473 
	C1678.005493,701.050476 1677.162598,701.833923 1676.896729,702.429504 
	C1674.691528,707.368958 1672.587891,712.353699 1670.163574,718.000000 
	C1676.768677,718.000000 1682.246094,718.003235 1687.723389,717.999390 
	C1700.984131,717.990112 1711.972168,708.964844 1715.034546,695.970398 
	C1719.892334,675.358521 1725.002930,654.806458 1729.921997,634.208923 
	C1732.686890,622.631470 1735.281860,611.013428 1738.058105,598.958618 
	C1719.298340,598.958618 1700.933594,598.958618 1682.293213,598.958618 
	C1684.691162,593.565247 1686.900024,588.597290 1689.386353,583.005188 
	C1680.160522,583.005188 1671.564819,582.917114 1662.976196,583.124451 
	C1661.981323,583.148499 1660.661865,584.633301 1660.114746,585.746460 
	C1657.543823,590.978088 1655.174683,596.309387 1652.763062,601.618530 
	C1650.383179,606.857971 1648.038452,612.113586 1645.429565,617.915283 
	C1666.351318,617.915283 1686.455444,617.915283 1706.480591,617.915283 
	C1705.951050,620.923950 1705.471558,623.647095 1704.937622,627.222778 
M1682.063599,680.606567 
	C1688.872559,663.283752 1695.681641,645.960876 1702.684692,628.144653 
	C1693.595459,628.144653 1685.622803,628.144653 1677.609131,628.144653 
	C1666.065918,657.571655 1654.536987,686.962097 1642.754150,716.999817 
	C1649.817261,716.999817 1656.433105,716.622986 1662.979492,717.134094 
	C1667.248291,717.467468 1668.727783,715.296814 1669.972656,712.092041 
	C1673.949707,701.852783 1677.947998,691.621765 1682.063599,680.606567 
M1642.922241,650.423279 
	C1634.255737,672.468201 1625.589233,694.513184 1616.812012,716.839661 
	C1624.787109,716.839661 1632.246582,716.839661 1639.925293,716.839661 
	C1651.452393,687.393250 1662.953857,658.012451 1674.630615,628.183655 
	C1666.155273,628.183655 1658.695801,628.183655 1651.703735,628.183655 
	C1648.736328,635.546509 1645.897095,642.591431 1642.922241,650.423279 
M1055.238525,585.000366 
	C1048.533936,585.000366 1041.829224,585.000366 1034.662354,585.000366 
	C1037.006958,592.727661 1039.039795,599.674500 1041.285156,606.551819 
	C1041.607422,607.538635 1042.938477,608.869690 1043.830322,608.891235 
	C1051.514526,609.076599 1059.205200,608.997742 1067.413696,608.997742 
	C1065.084961,601.378479 1063.010132,594.625854 1060.960571,587.865540 
	C1060.222290,585.429932 1058.609497,584.538757 1055.238525,585.000366 
z"/>
<path fill="#72BB38" opacity="1.000000" stroke="none" 
	d="
M831.531372,1.000003 
	C833.507019,1.333387 835.008240,1.927060 836.521912,1.960736 
	C856.238098,2.399385 875.757080,4.974496 894.827454,9.613683 
	C913.721191,14.209884 932.513123,19.622595 950.788513,26.229528 
	C963.992432,31.003042 976.706360,37.584763 988.857239,44.695621 
	C1001.976379,52.373131 1014.889099,60.752018 1026.592041,70.401360 
	C1037.985229,79.795242 1048.063354,90.879097 1058.127441,101.767525 
	C1073.405396,118.296867 1085.206055,137.313675 1094.772705,157.586075 
	C1104.644775,178.505676 1112.309204,200.303955 1115.908691,223.245956 
	C1118.136841,237.448227 1119.533936,251.792542 1120.924683,266.109955 
	C1121.689087,273.977539 1122.384033,281.969818 1121.854126,289.821106 
	C1120.673584,307.310974 1119.006836,324.782715 1116.988281,342.198120 
	C1113.563232,371.746918 1105.148682,400.102997 1094.958008,427.912292 
	C1089.886963,441.750488 1084.152344,455.389160 1077.923340,468.747681 
	C1071.134155,483.307678 1064.167725,497.882812 1055.937134,511.649323 
	C1044.503418,530.773193 1032.241333,549.442017 1019.538757,567.754211 
	C1009.458679,582.285950 998.325623,596.100403 987.377197,610.010620 
	C982.419434,616.309631 976.969360,622.255066 971.405212,628.036194 
	C957.113953,642.884827 942.994812,657.928772 928.115356,672.172302 
	C916.229980,683.549744 903.348816,693.889587 890.871277,704.645447 
	C867.631592,724.678406 842.516174,742.164490 816.731934,758.691895 
	C805.408997,765.949707 793.836060,772.863403 782.055298,779.349609 
	C766.916870,787.684326 751.728943,796.023010 736.061401,803.278198 
	C717.726624,811.768433 699.040344,819.584778 680.166870,826.805786 
	C654.378113,836.672791 627.892700,844.495117 600.929932,850.486267 
	C587.487671,853.473267 573.912109,856.096191 560.264893,857.866028 
	C542.386230,860.184692 524.377075,861.497253 506.212036,863.621338 
	C492.645782,864.000000 479.291534,864.000000 465.468658,864.000000 
	C463.493408,863.666626 461.993744,863.079651 460.479187,863.038269 
	C440.293915,862.487427 420.276428,860.138550 400.746613,855.203613 
	C382.058258,850.481262 363.435944,845.191772 345.281342,838.751160 
	C327.988861,832.616455 311.880646,823.725708 296.233887,813.943054 
	C274.980286,800.654785 256.164886,784.504395 239.735352,765.857483 
	C229.375992,754.099976 220.490112,740.885864 212.089081,727.600525 
	C201.013916,710.086426 192.915451,691.049927 186.937531,671.153381 
	C182.256058,655.571899 178.319870,639.827637 177.013504,623.569092 
	C175.468155,604.336487 174.207611,585.080933 172.823608,565.835327 
	C173.458237,565.747253 174.092865,565.659119 174.727493,565.571045 
	C175.154266,567.257690 175.934357,568.940491 175.952957,570.631653 
	C176.131958,586.910339 179.460342,602.711243 183.288925,618.403320 
	C187.693542,636.456421 193.811157,654.025085 203.218216,670.034790 
	C211.090393,683.432373 220.007660,696.310425 229.434082,708.677795 
	C243.115814,726.628113 260.251984,741.190552 279.108368,753.382751 
	C306.744324,771.251587 336.683319,784.225342 369.012482,790.853699 
	C384.499878,794.029053 400.247803,796.208069 415.981873,797.824402 
	C430.075928,799.272217 444.331177,800.113403 458.481598,799.782410 
	C473.032410,799.442078 487.543274,797.368652 502.070038,796.036072 
	C525.017578,793.931030 547.509827,789.237793 569.581665,782.874756 
	C588.988586,777.279968 608.473877,771.556885 627.183472,764.044495 
	C650.472839,754.693054 673.344055,744.124268 695.747375,732.798523 
	C712.954346,724.099670 729.580811,714.058228 745.695557,703.444946 
	C763.972961,691.407288 781.682068,678.446045 799.080566,665.156128 
	C810.161804,656.691589 820.462219,647.150391 830.692017,637.639343 
	C843.078430,626.123108 855.630005,614.684448 867.003052,602.203491 
	C881.661133,586.117615 895.848267,569.511353 909.075867,552.239136 
	C921.921509,535.465637 934.321533,518.170654 945.040466,499.997650 
	C956.513489,480.546387 966.385559,460.073975 975.831909,439.530182 
	C982.516113,424.993469 988.127014,409.837738 992.760986,394.517883 
	C997.729431,378.092560 1001.659668,361.275055 1004.785217,344.395813 
	C1007.195679,331.379059 1007.800171,318.014160 1008.938538,304.780945 
	C1009.575439,297.377625 1010.268372,289.896179 1009.889099,282.503632 
	C1008.649658,258.345276 1006.446228,234.234940 998.348022,211.229691 
	C993.457642,197.337280 988.315552,183.419815 981.827759,170.231201 
	C973.018616,152.323502 961.064453,136.456909 947.409912,121.732353 
	C931.931885,105.041428 914.289246,91.188484 894.908569,79.641075 
	C874.926453,67.735306 853.623108,58.459171 830.877563,53.125935 
	C813.509399,49.053551 796.122070,44.321541 778.469238,42.398415 
	C757.978333,40.166100 737.135803,39.428921 716.539551,40.287769 
	C682.700378,41.698849 649.230957,47.084122 616.572144,56.186798 
	C597.403259,61.529545 578.693298,68.523956 559.791992,74.820526 
	C535.487732,82.916969 512.523865,94.126495 490.038147,106.168304 
	C471.568970,116.059128 453.845825,127.343063 435.255737,137.851257 
	C434.584595,137.579102 434.449738,137.465225 434.314911,137.351379 
	C445.905090,129.041122 457.075897,120.052498 469.178223,112.570679 
	C490.297363,99.514549 511.537201,86.511574 533.565063,75.105904 
	C557.269714,62.831997 581.532654,51.410507 606.292175,41.458469 
	C635.571350,29.689772 665.811462,20.372347 696.820374,14.103699 
	C714.376099,10.554668 732.078247,7.611827 749.816406,5.122825 
	C762.316040,3.368881 774.987305,2.837417 787.790955,1.380067 
	C802.354248,1.000000 816.708435,1.000000 831.531372,1.000003 
z"/>
<path fill="#0061AE" opacity="1.000000" stroke="none" 
	d="
M1774.000000,415.571533 
	C1772.669312,422.234833 1771.584717,428.534729 1769.956299,434.690765 
	C1766.639526,447.230133 1760.578125,458.542999 1752.672485,468.682251 
	C1740.859619,483.832458 1726.384521,496.274384 1710.092041,506.327240 
	C1689.781250,518.859497 1668.361450,529.192017 1645.051392,535.000000 
	C1633.432617,537.895020 1621.821655,541.373779 1609.993652,542.737122 
	C1594.938599,544.472351 1579.671875,544.746094 1564.488281,544.913025 
	C1533.650879,545.252136 1504.298584,538.771118 1477.255859,523.598389 
	C1460.620850,514.265137 1446.311646,502.026123 1437.540527,484.794586 
	C1430.687012,471.330566 1428.603394,456.831085 1430.838745,441.540131 
	C1433.979858,420.051910 1444.035645,402.424561 1458.598999,386.868866 
	C1478.145386,365.990753 1502.122681,351.848541 1528.015625,340.444458 
	C1547.401733,331.906158 1567.602051,326.543884 1588.425781,322.863495 
	C1609.457275,319.146301 1630.655762,319.118591 1651.698242,320.296509 
	C1677.642700,321.748779 1702.717529,328.095612 1725.541870,341.241028 
	C1742.197021,350.833527 1756.832153,362.773254 1765.947144,380.155426 
	C1770.738525,389.292419 1773.383789,399.170319 1773.611572,409.817261 
	C1774.000000,411.714355 1774.000000,413.428711 1774.000000,415.571533 
M1646.071045,449.636597 
	C1647.493408,445.175903 1649.104004,440.765198 1650.304321,436.245514 
	C1654.680420,419.766571 1659.783691,403.361511 1656.994263,385.928436 
	C1655.528564,376.768402 1651.307373,369.493011 1642.868286,364.954773 
	C1632.406982,359.329041 1621.395874,359.098389 1610.018555,360.967102 
	C1587.155884,364.722321 1572.632446,379.061920 1563.196045,398.925690 
	C1555.626343,414.860046 1550.961670,431.919250 1547.391602,449.214813 
	C1545.196411,459.849915 1543.449951,470.591461 1546.083130,481.351257 
	C1548.355225,490.635406 1553.621338,497.612335 1562.873169,501.406769 
	C1572.936035,505.533844 1583.190063,505.846680 1593.645874,503.973541 
	C1608.007324,501.400726 1619.760376,494.304565 1628.989868,483.026917 
	C1636.913940,473.344574 1641.619873,461.974426 1646.071045,449.636597 
z"/>
<path fill="#0061AE" opacity="1.000000" stroke="none" 
	d="
M0.999999,542.375000 
	C3.634066,533.109985 6.445435,524.267944 8.865156,515.319946 
	C13.842265,496.914886 18.598024,478.450012 23.466513,460.015472 
	C31.300472,430.352234 39.008213,400.654480 47.070446,371.053314 
	C50.077461,360.012787 52.245106,348.344330 61.966000,340.535797 
	C73.636620,331.161133 86.760971,324.379211 101.550377,322.205383 
	C113.074974,320.511383 124.881149,320.019531 136.544022,320.195679 
	C146.664536,320.348541 156.686890,323.121246 164.751373,329.479919 
	C170.524368,334.031799 175.107849,340.115784 180.102493,345.624603 
	C185.062134,351.094757 189.754974,356.809174 194.772461,362.224060 
	C205.104233,373.374084 215.621689,384.351898 225.975342,395.481873 
	C237.991394,408.398895 249.918716,421.398438 261.874878,434.371124 
	C269.474701,442.617035 277.042206,450.892670 284.650818,459.130402 
	C292.940491,468.105499 301.368591,476.957001 309.456573,486.109619 
	C310.731201,487.552032 311.198242,490.409698 310.871552,492.423676 
	C310.124481,497.029266 308.781403,501.554962 307.454926,506.046509 
	C303.889740,518.118347 295.140686,525.889709 284.852325,531.996948 
	C264.775574,543.914490 242.628677,546.599976 219.888794,544.836426 
	C210.057526,544.073914 200.247147,541.526062 192.536606,534.740417 
	C187.484161,530.294006 183.087128,525.085388 178.535995,520.091125 
	C173.010712,514.027832 167.742188,507.728943 162.166443,501.713745 
	C151.838730,490.572083 141.281601,479.642639 130.983627,468.473907 
	C121.854820,458.573273 112.939751,448.475311 103.952637,438.444489 
	C102.627228,436.965179 101.425156,435.375366 99.324097,432.807861 
	C89.134308,471.119232 79.334175,507.965607 69.484039,545.000000 
	C46.897869,545.000000 24.417591,545.000000 1.468657,545.000000 
	C1.000000,544.250000 1.000000,543.500000 0.999999,542.375000 
z"/>
<path fill="#0061AE" opacity="1.000000" stroke="none" 
	d="
M795.795105,320.995117 
	C798.520630,320.660889 800.777527,320.064453 803.039368,320.044922 
	C814.369385,319.946869 825.714233,319.645569 837.028748,320.076141 
	C858.443115,320.891083 879.283691,324.810638 899.191711,333.029175 
	C916.084473,340.002869 931.533447,349.239838 944.105530,362.676666 
	C956.656860,376.091370 963.813843,391.794495 964.062683,410.520813 
	C964.372559,433.844421 955.360352,453.501068 941.206177,471.290314 
	C927.212646,488.877686 909.208069,501.458710 889.963501,512.577515 
	C870.365906,523.900330 849.481262,532.130493 827.644653,537.566589 
	C814.753540,540.775696 801.412964,542.659912 788.159241,543.800415 
	C773.979126,545.020691 759.631714,545.422180 745.414490,544.823730 
	C723.883789,543.917358 702.960327,539.442261 682.962280,531.032043 
	C666.512085,524.114014 651.843689,514.624329 639.916321,501.312408 
	C630.580017,490.892334 624.054749,479.083923 621.874390,464.836517 
	C617.936890,439.107300 625.685669,416.902679 640.855469,396.653839 
	C655.973328,376.474274 676.145386,362.556885 697.897339,350.528015 
	C717.555359,339.657013 738.269531,331.480865 760.131775,326.559448 
	C771.695374,323.956299 783.585815,322.805450 795.795105,320.995117 
M834.062866,456.641235 
	C836.523743,449.462402 839.296326,442.372742 841.380859,435.086243 
	C845.758240,419.785004 849.579651,404.304321 847.918335,388.196747 
	C847.032776,379.610504 844.081299,371.936523 836.357056,366.680695 
	C824.075500,358.324036 810.588684,358.677582 797.161255,361.540192 
	C778.011536,365.622711 764.597656,377.926605 756.227112,395.051422 
	C750.586548,406.591156 746.137207,418.874054 742.595276,431.237122 
	C738.375732,445.965820 734.083008,460.915009 736.007812,476.626892 
	C737.421936,488.170563 742.447449,497.835876 754.781067,502.056427 
	C763.981750,505.204865 773.196777,505.380005 782.788757,504.125702 
	C796.003113,502.397675 806.920654,496.317932 816.020447,487.233063 
	C824.360291,478.906891 829.456482,468.244843 834.062866,456.641235 
z"/>
<path fill="#0061AE" opacity="1.000000" stroke="none" 
	d="
M478.000000,320.000000 
	C531.272705,320.000000 584.045349,320.000000 637.129456,320.000000 
	C633.974182,332.778290 630.954041,345.012695 627.931763,357.246552 
	C627.188660,360.254425 624.864868,360.023193 622.509338,360.020874 
	C590.849243,359.989807 559.189148,360.000061 527.529053,360.000061 
	C515.864807,360.000061 504.186157,359.638580 492.540405,360.102844 
	C481.161926,360.556488 477.964203,364.095032 475.703674,373.114563 
	C466.831360,408.515472 457.025482,443.682495 447.561798,478.935150 
	C446.054932,484.548340 444.575287,490.169586 442.989990,495.760742 
	C441.737518,500.178162 444.001160,502.673523 447.755951,503.777222 
	C450.676300,504.635620 453.851715,504.946198 456.914703,504.951477 
	C498.739227,505.023560 540.563904,505.000000 582.388550,505.000000 
	C584.179138,505.000000 585.969666,505.000000 588.094055,505.000000 
	C584.638184,517.793152 581.366272,530.109436 577.901306,542.371277 
	C577.601990,543.430542 576.138306,544.355652 575.004700,544.918274 
	C574.201843,545.316772 573.043274,544.999878 572.043457,544.999878 
	C506.723694,545.000061 441.402679,545.213135 376.085297,544.818787 
	C363.148712,544.740662 350.352539,541.724121 339.117371,534.567139 
	C331.253845,529.557922 328.793671,523.518555 331.157440,514.694702 
	C338.221466,488.325012 345.587585,462.036255 352.666687,435.670532 
	C358.240051,414.912872 363.545624,394.083466 369.004974,373.295044 
	C371.343658,364.389618 373.100616,355.253998 376.341339,346.684113 
	C379.751526,337.666107 387.596069,332.614410 396.293396,329.002319 
	C413.343628,321.921295 431.117676,319.312988 449.508331,319.944061 
	C458.828552,320.263885 468.168793,320.000000 478.000000,320.000000 
z"/>
<path fill="#0061AE" opacity="1.000000" stroke="none" 
	d="
M534.000000,411.999664 
	C560.164307,412.005859 585.828613,412.011383 611.492920,412.025360 
	C611.819885,412.025543 612.146851,412.132996 612.754272,412.239563 
	C609.109497,425.797272 605.472229,439.326691 601.834473,452.858276 
	C557.158325,452.858276 512.863892,452.858276 467.515778,452.858276 
	C468.640778,448.223083 469.620239,443.918060 470.736023,439.648682 
	C472.779877,431.827972 475.139252,424.080200 476.880890,416.194611 
	C477.590698,412.980865 478.720917,411.903198 482.005096,411.931183 
	C499.169006,412.077759 516.334839,411.999664 534.000000,411.999664 
z"/>
<path fill="#72BB38" opacity="1.000000" stroke="none" 
	d="
M388.382263,278.813538 
	C390.828979,289.247040 390.831482,298.992889 386.181366,308.721497 
	C380.301758,321.022339 370.642090,327.948730 357.783539,330.995728 
	C337.573334,335.784790 315.499847,324.275391 309.505554,302.906647 
	C304.000183,283.281067 310.759155,264.007568 330.002136,254.184219 
	C352.221222,242.841599 380.117950,252.467178 388.382263,278.813538 
z"/>
<path fill="#72BB38" opacity="1.000000" stroke="none" 
	d="
M277.707825,258.000336 
	C258.485474,259.033081 244.410202,251.283554 236.302032,234.447784 
	C224.324448,209.577667 239.820847,180.559097 266.464111,176.192657 
	C290.224213,172.298706 310.622925,188.108765 314.225098,211.261154 
	C317.452393,232.004089 301.856140,253.845078 282.890289,257.016998 
	C281.306580,257.281860 279.743469,257.669800 277.707825,258.000336 
z"/>
<path fill="#72BB38" opacity="1.000000" stroke="none" 
	d="
M240.024292,373.627411 
	C236.977280,358.006958 241.991898,346.168488 254.331009,336.841888 
	C266.299988,327.795013 286.853760,329.780151 297.740906,340.932526 
	C311.171082,354.689880 311.181427,376.421356 297.697449,389.781006 
	C279.539307,407.771698 249.043991,400.537079 240.976074,376.298767 
	C240.720642,375.531403 240.356308,374.800293 240.024292,373.627411 
z"/>
<path fill="#72BB38" opacity="1.000000" stroke="none" 
	d="
M434.897400,137.889038 
	C433.937256,138.935104 432.799225,139.785126 431.661194,140.635132 
	C431.418304,140.274216 431.175385,139.913300 430.932495,139.552383 
	C431.875641,138.952911 432.818787,138.353439 434.038422,137.552673 
	C434.449738,137.465225 434.584595,137.579102 434.897400,137.889038 
z"/>
<path fill="#72BB38" opacity="1.000000" stroke="none" 
	d="
M430.647614,140.828033 
	C429.899445,141.797699 428.898193,142.466599 427.896912,143.135513 
	C427.712524,142.819550 427.528137,142.503586 427.343750,142.187622 
	C428.360687,141.634171 429.377594,141.080734 430.647614,140.828033 
z"/>
<path fill="#0061AE" opacity="1.000000" stroke="none" 
	d="
M1308.000244,378.781250 
	C1305.687988,399.021667 1293.400146,411.789185 1277.512329,421.699127 
	C1270.832153,425.865845 1263.476196,428.949005 1256.645020,432.414337 
	C1261.611694,435.996857 1267.153809,439.331909 1271.906128,443.555664 
	C1282.949341,453.370575 1285.336914,465.950500 1281.592285,479.740570 
	C1277.381226,495.248260 1266.841431,505.866241 1253.557129,514.073853 
	C1233.531982,526.446289 1211.374268,532.940857 1188.445068,536.928955 
	C1174.178711,539.410339 1159.812500,542.041016 1145.396606,542.791992 
	C1113.590088,544.448730 1081.723755,544.958374 1048.355469,545.982910 
	C1052.132080,539.906250 1055.110229,535.281982 1057.918457,530.556763 
	C1062.135254,523.461182 1066.496094,516.429810 1070.261719,509.096985 
	C1071.948242,505.812592 1073.770630,504.800598 1077.364258,504.902100 
	C1087.355835,505.184265 1097.374756,505.338989 1107.357056,504.923645 
	C1123.949707,504.233185 1139.715820,500.667725 1153.815063,491.087189 
	C1164.755981,483.652740 1167.959229,467.547729 1152.790161,459.901489 
	C1144.338501,455.641388 1135.503662,453.269623 1126.130859,453.048126 
	C1116.836060,452.828461 1107.532227,453.000092 1097.681030,453.000092 
	C1102.797974,439.051025 1107.719849,425.634003 1112.721191,411.999878 
	C1120.280396,411.999878 1127.949463,412.291870 1135.588745,411.939880 
	C1152.135864,411.177429 1167.590332,406.893097 1180.914185,396.544617 
	C1191.002441,388.709198 1190.190674,374.539307 1179.181519,368.064941 
	C1170.169800,362.765228 1160.196411,360.491455 1149.861938,360.063812 
	C1142.067261,359.741241 1134.248291,360.000000 1126.078491,360.000000 
	C1127.989258,346.620911 1129.844849,333.628693 1131.765137,320.183624 
	C1132.578491,320.143158 1134.017578,320.011322 1135.456909,320.009460 
	C1148.123047,319.993195 1160.789062,319.986023 1173.455200,320.003174 
	C1193.519409,320.030334 1213.319946,322.486053 1233.081665,325.854523 
	C1250.917236,328.894653 1268.215088,333.391602 1284.150391,342.090912 
	C1294.040161,347.489960 1302.898071,354.264343 1306.216187,365.783905 
	C1307.373657,369.802277 1307.437134,374.135742 1308.000244,378.781250 
z"/>
<path fill="#0061AE" opacity="1.000000" stroke="none" 
	d="
M1316.693359,407.680664 
	C1324.291016,379.365265 1331.615112,351.388092 1339.130859,323.462524 
	C1339.503296,322.078949 1341.538696,320.152130 1342.808594,320.145477 
	C1377.426636,319.964447 1412.045898,320.000824 1446.673706,320.000824 
	C1426.632812,395.008270 1406.651489,469.793060 1386.611450,544.797546 
	C1351.282715,544.797546 1315.830444,544.797546 1279.985229,544.797546 
	C1285.231934,525.336304 1290.442383,506.065948 1295.620972,486.786957 
	C1302.412598,461.502441 1309.181885,436.211853 1315.945679,410.919891 
	C1316.197510,409.977997 1316.290894,408.993774 1316.693359,407.680664 
z"/>
<path fill="#0061AE" opacity="1.000000" stroke="none" 
	d="
M1195.800781,701.853516 
	C1196.572266,696.855347 1198.250488,692.028381 1198.783691,687.078064 
	C1199.194092,683.268433 1200.971802,682.498779 1203.956787,683.047363 
	C1208.460327,683.875183 1209.857422,681.510437 1210.762939,677.652222 
	C1216.416626,653.564941 1222.229126,629.515015 1227.960083,605.445801 
	C1228.104614,604.839294 1227.914551,604.153015 1227.867920,603.263428 
	C1225.564453,603.081421 1223.328613,602.904663 1220.884399,602.711487 
	C1222.471436,596.094849 1223.978149,589.812622 1225.555054,583.238159 
	C1276.328125,583.238159 1327.396973,583.238159 1379.527100,583.238159 
	C1378.016724,589.544800 1376.986938,595.732117 1374.832153,601.499084 
	C1374.301147,602.920105 1370.107178,602.972534 1367.422607,603.701477 
	C1361.247803,629.684753 1354.982178,656.049683 1348.595215,682.925293 
	C1352.041992,682.925293 1354.821411,682.925293 1357.959473,682.925293 
	C1356.401123,689.424622 1354.948242,695.484680 1353.468018,701.658081 
	C1353.336670,701.710693 1353.040405,701.927246 1352.738159,701.936035 
	C1342.783203,702.226318 1342.855957,702.234985 1340.893799,714.485718 
	C1340.686768,715.778320 1339.038574,717.786743 1337.976929,717.840271 
	C1331.664062,718.158813 1325.327148,718.011902 1318.998291,717.987671 
	C1318.047852,717.984070 1317.098145,717.803833 1315.981689,717.687988 
	C1317.129761,712.481323 1318.224976,707.513733 1319.446899,701.971619 
	C1277.759521,701.971619 1236.987183,701.971619 1195.800781,701.853516 
M1310.499878,650.000000 
	C1316.653687,649.999878 1322.810059,650.094055 1328.958740,649.916199 
	C1330.119263,649.882629 1331.967163,649.005981 1332.266968,648.107483 
	C1333.525757,644.335571 1334.317139,640.407654 1335.241455,636.690308 
	C1334.552246,636.329041 1334.405151,636.184509 1334.257690,636.184204 
	C1305.327881,636.116882 1276.398071,636.047363 1247.468262,636.053955 
	C1246.454224,636.054199 1244.723633,636.611511 1244.543335,637.251770 
	C1243.399780,641.312561 1242.598755,645.469910 1241.595093,650.000000 
	C1264.954834,650.000000 1287.227417,650.000000 1310.499878,650.000000 
M1260.554932,603.000000 
	C1257.767700,603.000000 1254.980469,603.000000 1252.555176,603.000000 
	C1251.439331,607.976624 1250.452515,612.377808 1249.440186,616.892761 
	C1279.422241,616.892761 1309.358154,616.892761 1339.653198,616.892761 
	C1340.817993,612.451172 1341.985840,607.997314 1343.296265,603.000000 
	C1315.720581,603.000000 1288.631592,603.000000 1260.554932,603.000000 
M1235.887817,682.993591 
	C1263.846802,682.995728 1291.805786,683.016235 1319.764648,682.946899 
	C1321.193115,682.943359 1323.581299,682.518799 1323.883545,681.691284 
	C1325.330811,677.730164 1326.213013,673.562561 1327.419556,669.001465 
	C1297.497925,669.001465 1268.557983,668.994873 1239.618042,669.031250 
	C1238.688965,669.032410 1237.017090,669.338196 1236.945312,669.731262 
	C1236.144653,674.108826 1235.591309,678.531616 1235.887817,682.993591 
z"/>
<path fill="#0061AE" opacity="1.000000" stroke="none" 
	d="
M1490.710449,584.000244 
	C1494.284424,583.645630 1494.327148,585.344177 1493.719849,587.647888 
	C1492.333252,592.908081 1491.025269,598.188965 1489.552856,603.982788 
	C1512.104248,603.982788 1533.885132,603.982788 1556.228516,603.982788 
	C1554.622314,610.511230 1553.133545,616.562256 1551.549561,623.000000 
	C1534.696777,623.000000 1517.726196,622.974060 1500.755859,623.015625 
	C1495.609619,623.028259 1489.245361,621.451172 1485.693115,623.888123 
	C1482.704224,625.938599 1483.023682,632.767761 1481.809937,637.463745 
	C1480.881958,641.054138 1479.846924,644.616821 1478.683105,648.831177 
	C1498.984375,648.831177 1518.843018,648.831177 1539.402466,648.831177 
	C1537.780396,655.922180 1536.315552,662.326355 1534.788696,669.001038 
	C1516.150391,669.001038 1497.672729,669.119080 1479.198608,668.913147 
	C1474.894897,668.865112 1473.472046,669.995117 1472.788818,674.517578 
	C1471.609131,682.323914 1469.107910,689.930542 1467.083984,697.926270 
	C1488.701904,697.926270 1509.990479,697.926270 1531.828613,697.926270 
	C1530.498169,703.378296 1528.937012,708.431274 1528.129395,713.601868 
	C1527.665405,716.573181 1526.333496,717.090942 1523.851440,717.023621 
	C1520.354736,716.928772 1516.853638,717.000000 1513.354370,717.000000 
	C1467.864380,717.000000 1422.374268,717.000000 1376.884277,717.000000 
	C1375.063599,717.000000 1373.242920,717.000000 1370.962158,717.000000 
	C1372.360596,711.701172 1374.124512,706.833008 1374.806396,701.817688 
	C1375.288818,698.270813 1376.910522,697.957886 1379.726685,697.967529 
	C1398.222412,698.030762 1416.719238,697.910583 1435.213623,698.075806 
	C1438.894775,698.108643 1440.691895,697.496582 1441.440063,693.315063 
	C1442.859009,685.383606 1445.188721,677.615051 1447.297729,669.145447 
	C1427.006104,669.145447 1407.141968,669.145447 1386.540405,669.145447 
	C1388.261353,662.078430 1389.812866,655.706604 1391.446167,648.999084 
	C1409.883057,648.999084 1428.356812,648.903137 1446.828247,649.076233 
	C1450.744507,649.112915 1452.564209,648.405518 1453.226074,643.957764 
	C1454.241943,637.133118 1456.446167,630.485352 1458.261108,623.307495 
	C1436.134521,623.307495 1414.407349,623.307495 1391.958130,623.307495 
	C1397.893555,611.258972 1403.489746,599.778809 1409.278320,588.396484 
	C1409.700928,587.565552 1411.511353,587.070374 1412.686401,587.052307 
	C1420.337402,586.934509 1427.991211,586.991821 1436.605713,586.991821 
	C1433.279785,592.840210 1430.287354,598.102417 1427.072510,603.755371 
	C1439.109741,603.755371 1450.656128,603.755371 1462.803467,603.755371 
	C1464.310547,597.452881 1465.873657,590.916077 1467.527466,584.000000 
	C1474.962158,584.000000 1482.602051,584.000000 1490.710449,584.000244 
z"/>
<path fill="#0061AE" opacity="1.000000" stroke="none" 
	d="
M1078.962646,605.844971 
	C1079.716797,602.422729 1080.441040,599.422852 1081.258179,596.038635 
	C1085.294922,596.038635 1089.406494,596.038635 1094.039917,596.038635 
	C1093.602539,591.965820 1093.210571,588.315613 1092.780151,584.306885 
	C1102.921387,584.306885 1112.664307,584.306885 1122.542358,584.306885 
	C1123.007324,588.070557 1123.478638,591.886108 1123.986816,595.999084 
	C1132.725586,595.999084 1141.055054,596.329590 1149.321167,595.753052 
	C1151.247314,595.618774 1153.814331,592.712341 1154.603271,590.542114 
	C1156.737793,584.670593 1160.611816,583.510925 1166.329102,583.876587 
	C1174.084961,584.372681 1181.896484,584.000061 1190.555664,584.000061 
	C1188.131714,588.189636 1186.081055,591.734314 1183.724609,595.807190 
	C1187.261719,595.807190 1190.320312,595.807190 1194.422363,595.807190 
	C1193.006836,601.632996 1191.334595,606.789368 1190.599487,612.075928 
	C1189.987915,616.473206 1187.908569,617.184265 1183.991333,617.087952 
	C1173.501709,616.829956 1162.999878,616.914185 1152.507324,617.101807 
	C1151.093140,617.127136 1148.902588,618.196594 1148.426880,619.344360 
	C1143.800537,630.505127 1139.456787,641.783081 1135.069702,653.042175 
	C1134.908569,653.455566 1135.132568,654.018982 1135.219238,654.978088 
	C1139.990601,654.978088 1144.843750,655.465027 1149.513306,654.750549 
	C1151.526123,654.442627 1154.087524,651.964111 1154.784302,649.920776 
	C1156.654907,644.434998 1157.779175,638.677612 1158.942871,632.975647 
	C1159.463989,630.422485 1160.157349,628.874023 1163.221069,628.943359 
	C1170.876831,629.116699 1178.539185,629.000549 1186.700928,629.000549 
	C1184.528687,637.920288 1182.498413,646.630310 1180.276001,655.291077 
	C1177.343262,666.720337 1164.306641,674.681030 1154.729248,674.109558 
	C1146.096924,673.594482 1137.409180,674.007385 1128.745850,674.018311 
	C1128.417725,674.018738 1128.089600,674.095703 1127.177368,674.210449 
	C1124.859497,680.067566 1122.538940,686.231995 1119.927002,692.270447 
	C1119.424072,693.433044 1117.801270,694.845032 1116.658081,694.878540 
	C1108.857178,695.107300 1101.046509,694.998413 1092.578735,694.998413 
	C1095.243164,687.906250 1097.713135,681.331970 1100.383667,674.223877 
	C1087.417236,674.223877 1075.012939,674.223877 1062.276733,674.223877 
	C1065.402954,661.218628 1068.428711,648.673340 1071.420044,636.119873 
	C1071.720703,634.857910 1071.423096,633.271484 1072.093018,632.322937 
	C1073.042725,630.978149 1074.599243,629.199341 1075.955811,629.147095 
	C1083.764160,628.846680 1091.589966,629.000732 1099.928833,629.000732 
	C1097.808838,637.684082 1095.766113,646.051453 1093.583130,654.992676 
	C1097.956543,654.992676 1101.761475,655.112854 1105.550537,654.919617 
	C1106.690796,654.861328 1108.467285,654.200745 1108.800171,653.360046 
	C1113.547852,641.363831 1118.097534,629.289246 1122.800781,616.956360 
	C1107.161133,616.956360 1091.850952,616.956360 1075.917114,616.956360 
	C1076.982910,613.178589 1077.957764,609.722900 1078.962646,605.844971 
z"/>
<path fill="#0061AE" opacity="1.000000" stroke="none" 
	d="
M1636.709351,583.000000 
	C1638.324585,583.000000 1639.475464,583.000000 1640.907837,583.000000 
	C1638.698608,592.421448 1636.568481,601.505188 1634.342285,610.999023 
	C1637.502075,610.999023 1640.556763,610.999023 1644.637085,610.999023 
	C1643.092163,617.174988 1641.911987,622.816528 1640.112915,628.253235 
	C1639.780029,629.259399 1636.897217,630.027466 1635.281372,629.884766 
	C1631.146118,629.519714 1628.892700,630.710999 1628.342285,635.135132 
	C1627.814087,639.380615 1626.679443,643.550598 1625.714722,648.221069 
	C1629.637939,647.262146 1632.651733,646.525574 1636.148804,645.670837 
	C1634.623535,652.586121 1633.554688,658.632996 1631.817139,664.481201 
	C1631.373169,665.975830 1628.949585,667.509827 1627.198853,667.867615 
	C1622.517334,668.824341 1619.786865,670.476685 1618.759033,675.927551 
	C1616.398926,688.442383 1613.062866,700.778381 1609.898193,713.129395 
	C1609.520874,714.601746 1607.785278,716.784790 1606.614868,716.826416 
	C1597.824341,717.139038 1589.017822,716.996765 1579.828735,716.996765 
	C1582.855713,704.173767 1585.772217,691.818237 1588.810303,678.947815 
	C1577.100952,682.272644 1565.840088,685.470154 1553.689087,688.920410 
	C1554.374390,685.619507 1554.926636,682.746338 1555.579834,679.896362 
	C1555.940552,678.322571 1556.962524,676.747986 1556.841553,675.241638 
	C1556.215088,667.444641 1561.508545,666.294617 1567.342407,664.892334 
	C1575.315796,662.975708 1583.145874,660.436157 1590.971802,657.956909 
	C1592.291138,657.538940 1593.981323,656.270508 1594.309204,655.069824 
	C1596.517212,646.982300 1598.404053,638.807251 1600.559814,629.985229 
	C1589.304199,629.985229 1578.762085,629.985229 1567.856567,629.985229 
	C1572.887817,617.596863 1577.604614,605.776306 1582.564087,594.058411 
	C1583.121094,592.742188 1585.012695,591.201904 1586.350220,591.138916 
	C1592.795288,590.835205 1599.262573,591.002258 1606.170166,591.002258 
	C1603.768555,597.848450 1601.534180,604.217773 1599.275513,610.656677 
	C1603.468872,611.764465 1605.475708,610.791443 1606.202148,606.057922 
	C1607.202515,599.541321 1609.740356,593.264648 1610.799316,586.751770 
	C1611.380737,583.176331 1613.010620,582.938232 1615.763184,582.972290 
	C1622.589478,583.056580 1629.417480,583.000000 1636.709351,583.000000 
z"/>
<path fill="#0060AE" opacity="1.000000" stroke="none" 
	d="
M1004.655212,713.801147 
	C1012.176270,699.558716 1019.436462,685.609131 1026.922974,671.224609 
	C1022.588196,671.224609 1018.710327,671.224609 1013.714294,671.224609 
	C1021.801941,657.252258 1029.485107,643.978699 1037.527344,630.084839 
	C1032.629272,630.084839 1028.531250,630.084839 1024.152222,630.084839 
	C1025.160034,625.309326 1025.858887,620.874023 1027.129272,616.609009 
	C1027.553955,615.183105 1029.418213,613.182800 1030.658813,613.157837 
	C1043.310425,612.903015 1055.968994,613.001953 1069.736694,613.001953 
	C1062.011719,626.639709 1054.646729,639.642151 1047.094238,652.975586 
	C1050.542114,652.975586 1053.512329,652.975586 1057.336426,652.975586 
	C1052.498413,662.734314 1047.772217,671.958618 1043.407349,681.350952 
	C1042.600830,683.086670 1042.631958,685.756348 1043.366211,687.548584 
	C1044.828369,691.117676 1046.769409,694.585754 1049.084229,697.665955 
	C1050.080811,698.992065 1052.498047,699.889893 1054.273926,699.896484 
	C1088.601196,700.024475 1122.929077,699.991333 1157.256836,699.991333 
	C1161.063843,699.991333 1164.870972,699.991333 1169.484009,699.991333 
	C1168.007080,705.773926 1166.823730,711.079712 1165.173950,716.236267 
	C1164.883301,717.144348 1162.643188,717.925720 1161.301636,717.928528 
	C1119.808594,718.016785 1078.314575,718.098450 1036.823730,717.792480 
	C1033.893066,717.770813 1030.984497,714.773560 1028.060303,713.156982 
	C1028.083374,719.182251 1023.112488,718.048645 1018.721497,718.011047 
	C1013.585815,717.967102 1008.449463,718.000793 1002.821228,718.000793 
	C1003.467407,716.395996 1003.930847,715.244995 1004.655212,713.801147 
z"/>
<path fill="#0061AE" opacity="1.000000" stroke="none" 
	d="
M1704.964844,626.796509 
	C1705.471558,623.647095 1705.951050,620.923950 1706.480591,617.915283 
	C1686.455444,617.915283 1666.351318,617.915283 1645.429565,617.915283 
	C1648.038452,612.113586 1650.383179,606.857971 1652.763062,601.618530 
	C1655.174683,596.309387 1657.543823,590.978088 1660.114746,585.746460 
	C1660.661865,584.633301 1661.981323,583.148499 1662.976196,583.124451 
	C1671.564819,582.917114 1680.160522,583.005188 1689.386353,583.005188 
	C1686.900024,588.597290 1684.691162,593.565247 1682.293213,598.958618 
	C1700.933594,598.958618 1719.298340,598.958618 1738.058105,598.958618 
	C1735.281860,611.013428 1732.686890,622.631470 1729.921997,634.208923 
	C1725.002930,654.806458 1719.892334,675.358521 1715.034546,695.970398 
	C1711.972168,708.964844 1700.984131,717.990112 1687.723389,717.999390 
	C1682.246094,718.003235 1676.768677,718.000000 1670.163574,718.000000 
	C1672.587891,712.353699 1674.691528,707.368958 1676.896729,702.429504 
	C1677.162598,701.833923 1678.005493,701.050476 1678.534058,701.084473 
	C1686.540527,701.599915 1688.534790,696.044250 1689.955811,689.910339 
	C1693.090942,676.378174 1696.143799,662.826782 1699.341431,649.309570 
	C1701.089722,641.919617 1703.064819,634.583252 1704.964844,626.796509 
z"/>
<path fill="#0061AE" opacity="1.000000" stroke="none" 
	d="
M1682.000977,680.997070 
	C1677.947998,691.621765 1673.949707,701.852783 1669.972656,712.092041 
	C1668.727783,715.296814 1667.248291,717.467468 1662.979492,717.134094 
	C1656.433105,716.622986 1649.817261,716.999817 1642.754150,716.999817 
	C1654.536987,686.962097 1666.065918,657.571655 1677.609131,628.144653 
	C1685.622803,628.144653 1693.595459,628.144653 1702.684692,628.144653 
	C1695.681641,645.960876 1688.872559,663.283752 1682.000977,680.997070 
z"/>
<path fill="#0061AE" opacity="1.000000" stroke="none" 
	d="
M1642.989990,650.029785 
	C1645.897095,642.591431 1648.736328,635.546509 1651.703735,628.183655 
	C1658.695801,628.183655 1666.155273,628.183655 1674.630615,628.183655 
	C1662.953857,658.012451 1651.452393,687.393250 1639.925293,716.839661 
	C1632.246582,716.839661 1624.787109,716.839661 1616.812012,716.839661 
	C1625.589233,694.513184 1634.255737,672.468201 1642.989990,650.029785 
z"/>
<path fill="#0060AE" opacity="1.000000" stroke="none" 
	d="
M1055.701538,585.000366 
	C1058.609497,584.538757 1060.222290,585.429932 1060.960571,587.865540 
	C1063.010132,594.625854 1065.084961,601.378479 1067.413696,608.997742 
	C1059.205200,608.997742 1051.514526,609.076599 1043.830322,608.891235 
	C1042.938477,608.869690 1041.607422,607.538635 1041.285156,606.551819 
	C1039.039795,599.674500 1037.006958,592.727661 1034.662354,585.000366 
	C1041.829224,585.000366 1048.533936,585.000366 1055.701538,585.000366 
z"/>
<path fill="#FFFFFF" opacity="1.000000" stroke="none" 
	d="
M1646.036499,450.037781 
	C1641.619873,461.974426 1636.913940,473.344574 1628.989868,483.026917 
	C1619.760376,494.304565 1608.007324,501.400726 1593.645874,503.973541 
	C1583.190063,505.846680 1572.936035,505.533844 1562.873169,501.406769 
	C1553.621338,497.612335 1548.355225,490.635406 1546.083130,481.351257 
	C1543.449951,470.591461 1545.196411,459.849915 1547.391602,449.214813 
	C1550.961670,431.919250 1555.626343,414.860046 1563.196045,398.925690 
	C1572.632446,379.061920 1587.155884,364.722321 1610.018555,360.967102 
	C1621.395874,359.098389 1632.406982,359.329041 1642.868286,364.954773 
	C1651.307373,369.493011 1655.528564,376.768402 1656.994263,385.928436 
	C1659.783691,403.361511 1654.680420,419.766571 1650.304321,436.245514 
	C1649.104004,440.765198 1647.493408,445.175903 1646.036499,450.037781 
z"/>
<path fill="#FFFFFF" opacity="1.000000" stroke="none" 
	d="
M834.032104,457.035400 
	C829.456482,468.244843 824.360291,478.906891 816.020447,487.233063 
	C806.920654,496.317932 796.003113,502.397675 782.788757,504.125702 
	C773.196777,505.380005 763.981750,505.204865 754.781067,502.056427 
	C742.447449,497.835876 737.421936,488.170563 736.007812,476.626892 
	C734.083008,460.915009 738.375732,445.965820 742.595276,431.237122 
	C746.137207,418.874054 750.586548,406.591156 756.227112,395.051422 
	C764.597656,377.926605 778.011536,365.622711 797.161255,361.540192 
	C810.588684,358.677582 824.075500,358.324036 836.357056,366.680695 
	C844.081299,371.936523 847.032776,379.610504 847.918335,388.196747 
	C849.579651,404.304321 845.758240,419.785004 841.380859,435.086243 
	C839.296326,442.372742 836.523743,449.462402 834.032104,457.035400 
z"/>
<path fill="#FFFFFF" opacity="1.000000" stroke="none" 
	d="
M1310.000000,650.000000 
	C1287.227417,650.000000 1264.954834,650.000000 1241.595093,650.000000 
	C1242.598755,645.469910 1243.399780,641.312561 1244.543335,637.251770 
	C1244.723633,636.611511 1246.454224,636.054199 1247.468262,636.053955 
	C1276.398071,636.047363 1305.327881,636.116882 1334.257690,636.184204 
	C1334.405151,636.184509 1334.552246,636.329041 1335.241455,636.690308 
	C1334.317139,640.407654 1333.525757,644.335571 1332.266968,648.107483 
	C1331.967163,649.005981 1330.119263,649.882629 1328.958740,649.916199 
	C1322.810059,650.094055 1316.653687,649.999878 1310.000000,650.000000 
z"/>
<path fill="#FFFFFF" opacity="1.000000" stroke="none" 
	d="
M1261.048706,603.000000 
	C1288.631592,603.000000 1315.720581,603.000000 1343.296265,603.000000 
	C1341.985840,607.997314 1340.817993,612.451172 1339.653198,616.892761 
	C1309.358154,616.892761 1279.422241,616.892761 1249.440186,616.892761 
	C1250.452515,612.377808 1251.439331,607.976624 1252.555176,603.000000 
	C1254.980469,603.000000 1257.767700,603.000000 1261.048706,603.000000 
z"/>
<path fill="#FFFFFF" opacity="1.000000" stroke="none" 
	d="
M1235.429565,682.967896 
	C1235.591309,678.531616 1236.144653,674.108826 1236.945312,669.731262 
	C1237.017090,669.338196 1238.688965,669.032410 1239.618042,669.031250 
	C1268.557983,668.994873 1297.497925,669.001465 1327.419556,669.001465 
	C1326.213013,673.562561 1325.330811,677.730164 1323.883545,681.691284 
	C1323.581299,682.518799 1321.193115,682.943359 1319.764648,682.946899 
	C1291.805786,683.016235 1263.846802,682.995728 1235.429565,682.967896 
z"/>
</svg>